<svg aria-hidden="true" fill="none" height="16" viewBox="0 0 16 16" width="16" xmlns="http://www.w3.org/2000/svg"><path d="M5.2 1.33333H10.8C12.9333 1.33333 14.6667 3.06667 14.6667 5.2V10.8C14.6667 11.8255 14.2593 12.809 13.5341 13.5341C12.809 14.2593 11.8255 14.6667 10.8 14.6667H5.2C3.06667 14.6667 1.33333 12.9333 1.33333 10.8V5.2C1.33333 4.1745 1.74071 3.19099 2.46585 2.46585C3.19099 1.74071 4.1745 1.33333 5.2 1.33333ZM5.06667 2.66667C4.43015 2.66667 3.8197 2.91952 3.36961 3.36961C2.91952 3.8197 2.66667 4.43015 2.66667 5.06667V10.9333C2.66667 12.26 3.74 13.3333 5.06667 13.3333H10.9333C11.5699 13.3333 12.1803 13.0805 12.6304 12.6304C13.0805 12.1803 13.3333 11.5699 13.3333 10.9333V5.06667C13.3333 3.74 12.26 2.66667 10.9333 2.66667H5.06667ZM11.5 3.66667C11.721 3.66667 11.933 3.75446 12.0893 3.91074C12.2455 4.06702 12.3333 4.27899 12.3333 4.5C12.3333 4.72101 12.2455 4.93298 12.0893 5.08926C11.933 5.24554 11.721 5.33333 11.5 5.33333C11.279 5.33333 11.067 5.24554 10.9107 5.08926C10.7545 4.93298 10.6667 4.72101 10.6667 4.5C10.6667 4.27899 10.7545 4.06702 10.9107 3.91074C11.067 3.75446 11.279 3.66667 11.5 3.66667ZM8 4.66667C8.88405 4.66667 9.7319 5.01786 10.357 5.64298C10.9821 6.2681 11.3333 7.11594 11.3333 8C11.3333 8.88405 10.9821 9.7319 10.357 10.357C9.7319 10.9821 8.88405 11.3333 8 11.3333C7.11594 11.3333 6.2681 10.9821 5.64298 10.357C5.01786 9.7319 4.66667 8.88405 4.66667 8C4.66667 7.11594 5.01786 6.2681 5.64298 5.64298C6.2681 5.01786 7.11594 4.66667 8 4.66667ZM8 6C7.46957 6 6.96086 6.21071 6.58579 6.58579C6.21071 6.96086 6 7.46957 6 8C6 8.53043 6.21071 9.03914 6.58579 9.41421C6.96086 9.78929 7.46957 10 8 10C8.53043 10 9.03914 9.78929 9.41421 9.41421C9.78929 9.03914 10 8.53043 10 8C10 7.46957 9.78929 6.96086 9.41421 6.58579C9.03914 6.21071 8.53043 6 8 6Z" fill="currentColor"></path></svg>
