<svg xmlns="http://www.w3.org/2000/svg" width="45" height="62" viewBox="0 0 45 62" fill="none"><g clip-path="url(#clip0_6005_48)">
<g>
<path d="M43.9922 18.441C40.3055 20.6667 38.0284 24.482 38.0284 28.7214C38.0284 33.4906 40.9561 37.8359 45.4019 39.6376C44.5344 42.3932 43.2332 44.9367 41.6067 47.2684C39.2211 50.5538 36.7272 53.9453 33.0404 53.9453C29.3537 53.9453 28.2693 51.8256 23.932 51.8256C19.7031 51.8256 18.185 54.0513 14.7151 54.0513C11.2452 54.0513 8.85969 50.9778 6.14884 47.1624C2.57053 41.8632 0.510289 35.7162 0.401855 29.2513C0.401855 18.759 7.34161 13.1419 14.2814 13.1419C17.9681 13.1419 21.0043 15.4735 23.2814 15.4735C25.45 15.4735 28.9199 13.0359 33.0404 13.0359C37.3778 12.9299 41.4982 14.9436 43.9922 18.441ZM31.0886 8.58461C32.932 6.46496 33.9079 3.81538 34.0163 1.05983C34.0163 0.74188 34.0163 0.317949 33.9079 0C30.7633 0.317949 27.8356 1.80171 25.7753 4.13333C23.932 6.14701 22.8476 8.6906 22.7392 11.4462C22.7392 11.7641 22.7392 12.082 22.8476 12.4C23.0645 12.4 23.3898 12.506 23.6067 12.506C26.5344 12.294 29.2452 10.8103 31.0886 8.58461Z" fill="black" />
</g>
</g>
<defs><clipPath id="clip0_6005_48">
<rect width="45" height="62" fill="white" />
</clipPath>
</defs></svg>
