<svg xmlns="http://www.w3.org/2000/svg" width="32" height="24" viewBox="0 0 32 24" preserveAspectRatio="xMidYMid slice"><path fill="#2e42a5" d="M0 0h32v24H0z"/><path fill="#f7fcff" d="M0 0h2.2l6.8 5V0h4v5l6.8-5H18v1.5L12.5 5.5H18v4h-5.5L18 13.5V14h-1.8L10 9.6V14H8V9.6L1.8 14H0v-1.5l5.5-4H0v-4h5.5L0 1.5z"/><path fill="#f50100" d="M7.985 0h2v6H18v2H9.985v6h-2V8H0V6h7.985zM0 0l7 5h-1.4L0 1zm18 14l-7-5h1.4l5.6 4z"/><g fill="#f7fcff"><circle cx="9" cy="19.5" r="1.6"/><circle cx="22" cy="12" r="1"/><circle cx="24" cy="4" r="1"/><circle cx="29" cy="8" r="1"/><circle cx="25" cy="20" r="1"/><circle cx="28.5" cy="11.2" r="0.6"/></g></svg>