<svg width="24" height="24" viewBox="0 0 24 24" fill="none" xmlns="http://www.w3.org/2000/svg">
<g id="Icon">
<path id="Vector" d="M20.6889 7.0904C21.0232 6.84665 21.0982 6.3779 20.8545 6.04353C20.6107 5.70915 20.142 5.63415 19.8076 5.8779L17.4795 7.57165L17.1701 7.3654C16.5545 6.9529 15.8295 6.73415 15.0889 6.73415H8.73887C7.90449 6.73415 7.09824 7.01228 6.44512 7.51853L4.18887 5.8779C3.85449 5.63415 3.38574 5.70915 3.14199 6.04353C2.89824 6.3779 2.97324 6.84665 3.30762 7.0904L6.05762 9.0904C6.35762 9.30603 6.76699 9.27478 7.02949 9.0154L7.15137 8.89353C7.57324 8.47165 8.14512 8.23415 8.74199 8.23415H10.1889L7.32324 11.0998C6.83574 11.5873 6.83574 12.3779 7.32324 12.8685L7.34824 12.8935C8.81074 14.3592 11.1857 14.3592 12.6514 12.8935L13.4982 12.0467L16.5545 15.1029C17.042 15.5904 17.042 16.381 16.5545 16.8717L16.2482 17.1779L15.2795 16.2092C14.9857 15.9154 14.5107 15.9154 14.2201 16.2092C13.9295 16.5029 13.9264 16.9779 14.2201 17.2685L15.0951 18.1435C14.5482 18.4685 13.9326 18.6654 13.2951 18.7217L11.7795 17.2029C11.4857 16.9092 11.0107 16.9092 10.7201 17.2029C10.4295 17.4967 10.4264 17.9717 10.7201 18.2623L11.1889 18.731H11.0701C9.94199 18.731 8.86074 18.2842 8.06387 17.4873L4.02949 13.4529C3.73574 13.1592 3.26074 13.1592 2.97012 13.4529C2.67949 13.7467 2.67637 14.2217 2.97012 14.5123L7.00449 18.5498C8.08262 19.6279 9.54512 20.2342 11.0701 20.2342H12.6889L12.7201 20.2654L12.7514 20.2342H12.9295C14.4545 20.2342 15.917 19.6279 16.9951 18.5498L17.617 17.9279C17.6545 17.8904 17.6889 17.856 17.7232 17.8185C17.7451 17.8029 17.7639 17.7842 17.7826 17.7654L21.0295 14.5154C21.3232 14.2217 21.3232 13.7467 21.0295 13.456C20.7357 13.1654 20.2607 13.1623 19.9701 13.456L18.2889 15.1373C18.1576 14.7373 17.9357 14.3592 17.617 14.0404L14.0295 10.4529C13.7357 10.1592 13.2607 10.1592 12.9701 10.4529L11.592 11.831C10.7639 12.6592 9.45137 12.706 8.57012 11.9748L11.6545 8.8904C12.0732 8.47165 12.642 8.23415 13.2357 8.23103H15.0951C15.5389 8.23103 15.9732 8.36228 16.342 8.60915L17.0826 9.10915C17.3451 9.28415 17.6857 9.27478 17.9389 9.0904L20.6889 7.0904Z" fill="#2BC48B"/>
</g>
</svg>
